<svg data-v-423bf9ae="" xmlns="http://www.w3.org/2000/svg" viewBox="0 0 555 90" class="iconLeft"><!----><!----><!----><g data-v-423bf9ae="" id="94cd7b7e-5551-40bb-829f-1b9b45e1c3b9" fill="#000000" transform="matrix(5.424955053999871,0,0,5.424955053999871,110.71965443363669,5.886075862381134)"><path d="M0.14 4.20L2.66 4.20L2.66 12.60L4.20 12.60L4.20 4.20L6.72 4.20L6.72 2.80L0.14 2.80ZM7.49 3.64C7.49 3.89 7.58 4.11 7.77 4.28C7.96 4.46 8.18 4.55 8.44 4.55C8.70 4.55 8.93 4.46 9.11 4.28C9.30 4.11 9.39 3.89 9.39 3.64C9.39 3.39 9.30 3.17 9.11 3.00C8.93 2.82 8.70 2.73 8.44 2.73C8.18 2.73 7.96 2.82 7.77 3.00C7.58 3.17 7.49 3.39 7.49 3.64ZM7.70 6.16L7.70 12.60L9.18 12.60L9.18 6.16ZM15.53 8.69L11.97 8.69C12.04 8.26 12.25 7.92 12.61 7.66C12.97 7.41 13.38 7.28 13.85 7.28C14.84 7.28 15.40 7.75 15.53 8.69ZM11.94 9.73L17.07 9.73C17.08 9.61 17.09 9.45 17.09 9.25C17.09 8.25 16.80 7.45 16.21 6.88C15.62 6.31 14.84 6.02 13.85 6.02C12.84 6.02 12.02 6.33 11.39 6.96C10.76 7.59 10.44 8.40 10.44 9.38C10.44 10.38 10.75 11.19 11.35 11.81C11.95 12.43 12.78 12.74 13.85 12.74C15.26 12.74 16.29 12.24 16.94 11.24L15.83 10.56C15.48 11.13 14.82 11.41 13.85 11.41C13.33 11.41 12.90 11.27 12.56 10.98C12.21 10.69 12.01 10.27 11.94 9.73ZM19.89 7.15L19.89 6.16L18.42 6.16L18.42 12.60L19.89 12.60L19.89 8.96C19.89 8.51 20.06 8.13 20.39 7.82C20.72 7.51 21.10 7.35 21.53 7.35C21.94 7.35 22.25 7.45 22.46 7.64C22.66 7.83 22.76 8.18 22.76 8.68L22.76 12.60L24.23 12.60L24.23 8.54C24.23 7.63 24.04 6.98 23.64 6.59C23.24 6.21 22.68 6.02 21.95 6.02C21.07 6.02 20.38 6.40 19.89 7.15ZM25.49 9.38C25.49 10.44 25.81 11.27 26.43 11.86C27.06 12.45 27.83 12.74 28.76 12.74C29.75 12.74 30.51 12.31 31.02 11.45L31.02 12.60L32.49 12.60L32.49 1.68L31.02 1.68L31.02 7.31C30.51 6.45 29.75 6.02 28.76 6.02C27.83 6.02 27.06 6.31 26.43 6.90C25.81 7.49 25.49 8.32 25.49 9.38ZM26.98 9.38C26.98 8.73 27.17 8.22 27.55 7.87C27.92 7.52 28.42 7.35 29.04 7.35C29.59 7.35 30.06 7.52 30.44 7.85C30.83 8.18 31.02 8.69 31.02 9.38C31.02 10.07 30.83 10.58 30.44 10.91C30.06 11.24 29.59 11.41 29.04 11.41C28.42 11.41 27.92 11.23 27.55 10.88C27.17 10.54 26.98 10.03 26.98 9.38ZM34.96 8.01C35.60 7.54 36.26 7.31 36.95 7.31C37.85 7.31 38.30 7.56 38.30 8.05L38.30 8.90C37.84 8.65 37.28 8.53 36.64 8.53C35.82 8.53 35.13 8.72 34.58 9.11C34.03 9.51 33.75 10.06 33.75 10.78C33.75 11.43 33.98 11.92 34.44 12.25C34.90 12.58 35.45 12.74 36.11 12.74C36.60 12.74 37.04 12.65 37.43 12.46C37.82 12.27 38.11 12.01 38.30 11.68L38.30 12.60L39.77 12.60L39.77 7.98C39.77 7.32 39.52 6.82 39.00 6.50C38.49 6.18 37.80 6.02 36.95 6.02C36.03 6.02 35.19 6.30 34.41 6.87ZM35.17 10.64C35.17 10.36 35.32 10.12 35.63 9.90C35.94 9.70 36.34 9.59 36.83 9.59C37.37 9.59 37.86 9.67 38.30 9.84L38.30 10.08C38.30 10.65 38.16 11.05 37.86 11.27C37.57 11.49 37.12 11.61 36.53 11.61C35.62 11.61 35.17 11.28 35.17 10.64ZM45.79 2.80L45.79 12.60L51.18 12.60L51.18 11.20L47.33 11.20L47.33 2.80ZM55.87 11.61L55.87 12.60L57.34 12.60L57.34 6.16L55.87 6.16L55.87 9.80C55.87 10.25 55.71 10.63 55.38 10.94C55.05 11.25 54.67 11.41 54.24 11.41C53.83 11.41 53.52 11.31 53.31 11.12C53.11 10.93 53.00 10.58 53.00 10.08L53.00 6.16L51.53 6.16L51.53 10.22C51.53 11.13 51.73 11.78 52.13 12.17C52.53 12.55 53.09 12.74 53.82 12.74C54.70 12.74 55.39 12.36 55.87 11.61ZM58.88 3.64C58.88 3.89 58.98 4.11 59.16 4.28C59.35 4.46 59.57 4.55 59.84 4.55C60.10 4.55 60.32 4.46 60.51 4.28C60.69 4.11 60.79 3.89 60.79 3.64C60.79 3.39 60.69 3.17 60.51 3.00C60.32 2.82 60.10 2.73 59.84 2.73C59.57 2.73 59.35 2.82 59.16 3.00C58.98 3.17 58.88 3.39 58.88 3.64ZM59.09 6.16L59.09 12.60L60.58 12.60L60.58 6.16ZM62.97 10.25L61.77 10.78C61.87 11.31 62.18 11.77 62.69 12.16C63.19 12.55 63.77 12.74 64.43 12.74C65.17 12.74 65.78 12.59 66.26 12.28C66.75 11.97 66.99 11.52 66.99 10.92C66.99 10.31 66.81 9.84 66.44 9.51C66.07 9.17 65.59 8.89 65.00 8.68C64.52 8.50 64.16 8.34 63.92 8.20C63.69 8.05 63.57 7.89 63.57 7.71C63.57 7.39 63.85 7.22 64.41 7.22C64.93 7.22 65.35 7.46 65.69 7.92L66.82 7.28C66.62 6.91 66.30 6.60 65.88 6.37C65.45 6.14 64.96 6.02 64.40 6.02C63.78 6.02 63.25 6.17 62.79 6.48C62.33 6.79 62.10 7.20 62.10 7.71C62.10 8.66 62.79 9.35 64.16 9.79C64.59 9.92 64.92 10.07 65.14 10.23C65.37 10.40 65.48 10.62 65.48 10.88C65.48 11.23 65.15 11.41 64.50 11.41C64.14 11.41 63.82 11.31 63.53 11.11C63.24 10.91 63.06 10.62 62.97 10.25ZM68.11 3.64C68.11 3.89 68.20 4.11 68.39 4.28C68.58 4.46 68.80 4.55 69.06 4.55C69.32 4.55 69.55 4.46 69.73 4.28C69.92 4.11 70.01 3.89 70.01 3.64C70.01 3.39 69.92 3.17 69.73 3.00C69.55 2.82 69.32 2.73 69.06 2.73C68.80 2.73 68.58 2.82 68.39 3.00C68.20 3.17 68.11 3.39 68.11 3.64ZM68.32 6.16L68.32 12.60L69.80 12.60L69.80 6.16ZM71.69 3.92L71.69 6.16L70.64 6.16L70.64 7.49L71.69 7.49L71.69 12.60L73.16 12.60L73.16 7.49L74.21 7.49L74.21 6.16L73.16 6.16L73.16 3.92ZM74.63 9.38C74.63 10.40 74.97 11.21 75.65 11.82C76.33 12.43 77.17 12.74 78.18 12.74C79.18 12.74 80.03 12.43 80.70 11.82C81.38 11.21 81.72 10.40 81.72 9.38C81.72 8.36 81.38 7.55 80.70 6.94C80.03 6.33 79.18 6.02 78.18 6.02C77.17 6.02 76.33 6.33 75.65 6.94C74.97 7.55 74.63 8.36 74.63 9.38ZM76.12 9.38C76.12 8.75 76.31 8.26 76.69 7.90C77.07 7.53 77.57 7.35 78.18 7.35C78.78 7.35 79.28 7.53 79.66 7.90C80.04 8.26 80.23 8.75 80.23 9.38C80.23 10.01 80.04 10.50 79.66 10.86C79.28 11.23 78.78 11.41 78.18 11.41C77.57 11.41 77.07 11.23 76.69 10.86C76.31 10.50 76.12 10.01 76.12 9.38Z"></path></g><defs data-v-423bf9ae=""><linearGradient data-v-423bf9ae="" gradientTransform="rotate(25)" id="b6264757-441f-4ea3-8f61-3dc73b14ce90" x1="0%" y1="0%" x2="100%" y2="0%"><stop data-v-423bf9ae="" offset="0%" style="stop-color: rgb(40, 139, 88); stop-opacity: 1;"></stop><stop data-v-423bf9ae="" offset="100%" style="stop-color: rgb(21, 34, 241); stop-opacity: 1;"></stop></linearGradient></defs><g data-v-423bf9ae="" id="bce63c68-a3bf-42f7-8fd0-840715ba2365" transform="matrix(3.6,0,0,3.6,0.2604753000861777,0)" stroke="none" fill="url(#b6264757-441f-4ea3-8f61-3dc73b14ce90)"><path d="M2.702 3h20c.551 0 1-.449 1-1V1c0-.551-.449-1-1-1h-20c-.551 0-1 .449-1 1v1c0 .551.449 1 1 1zM25.406 10.97l-1.704-4.881V5c0-.551-.449-1-1-1h-20c-.551 0-1 .449-1 1v1.089L0 10.97s-.017 1.024 1.015 1.024a.75.75 0 0 0 .687-.383V24c0 .551.449 1 1 1h13V15h5v10h2c.551 0 1-.449 1-1V11.61c.135.206.37.384.798.384 1.032 0 .906-1.024.906-1.024zm-15.991.094a1.415 1.415 0 0 1-2.828.041c.001-.036.002-.07.001-.092A.059.059 0 0 0 6.59 11h-.002l-.002-.03L7.253 7h2.515l-.359 3.97.002.03h-.003c.001.021.007.042.007.064zm-6.12 1.416a1.417 1.417 0 0 1-1.416-1.416c0-.022.006-.043.007-.064h-.005l.001-.03L3.061 7h2.515l-.872 3.97.002.03h-.002c.001.021.007.042.007.064 0 .781-.634 1.416-1.416 1.416zM12.702 22h-8v-7h8v7zm.001-9.52a1.417 1.417 0 0 1-1.416-1.416c0-.022.006-.043.007-.064h-.003v-.03L11.444 7h2.515l.153 3.97V11h-.001l.001.013c0 .014.003.039.005.059a1.415 1.415 0 0 1-1.414 1.408zm4.703 0a1.416 1.416 0 0 1-1.415-1.405l.004-.054a.15.15 0 0 0 .002-.021h-.002v-.03L15.636 7h2.516l.667 3.97.003.03h-.007c.001.021.007.042.007.064 0 .781-.634 1.416-1.416 1.416zm4.687 0a1.413 1.413 0 0 1-1.41-1.358c.015-.091.017-.152.017-.152L19.828 7h2.516l1.181 3.97V11h-.022c.001.021.007.042.007.064a1.418 1.418 0 0 1-1.417 1.416z"></path></g><!----></svg>